English title: The Search for Santa Paws.

Canada
Avontuur / Familie
96 minuten

geregisseerd door Robert Vince
met Richard Riehle, Kaitlyn Maher en de stem van Zachary Gordon

Als de Kerstman en zijn nieuwe beste vriend Paws, ontdekken dat de jongens en de meisjes van de wereld de geest van Kerstmis hebben verloren, ondernemen ze een trip naar New York. Maar nadat de Kerstman zijn geheugen verliest, is het aan Paws, het trouwe weesmeisje Quinn, haar nieuwe vriend Will en een wonderbaarlijke groep van magische, pratende honden, om de Kerstman uit de nood te helpen en de wereld te laten zien waar Kerstmis eigenlijk echt over gaat.
 
http://www.moviemeter.nl/film/71679
 
http://www.imdb.com/title/tt1544572/

Audio : Dutch / Nederlands. No subtitles / Geen ondertitels.

Hoesjes bijgevoegd.

General
Complete name                    : De zoektocht naar Santa Paws-AC3-XviD-DVDRip[Ned]2010\De zoektocht naar Santa Paws-AC3-XviD-DVDRip[Ned]2010.avi
Format                           : AVI
Format/Info                      : Audio Video Interleave
File size                        : 1.36 GiB
Duration                         : 1h 32mn
Overall bit rate                 : 2 105 Kbps
Writing application              : VirtualDubMod 1.5.4.1 (build 2178/release)
Writing library                  : VirtualDubMod build 2178/release

Video
ID                               : 0
Format                           : MPEG-4 Visual
Format profile                   : Simple@L3
Format settings, BVOP            : No
Format settings, QPel            : No
Format settings, GMC             : No warppoints
Format settings, Matrix          : Default (H.263)
Codec ID                         : XVID
Codec ID/Hint                    : XviD
Duration                         : 1h 32mn
Bit rate                         : 1 711 Kbps
Width                            : 720 pixels
Height                           : 400 pixels
Display aspect ratio             : 16:9
Frame rate                       : 25.000 fps
Resolution                       : 8 bits
Colorimetry                      : 4:2:0
Scan type                        : Progressive
Bits/(Pixel*Frame)               : 0.238
Stream size                      : 1.11 GiB (81%)
Writing library                  : XviD 1.1.2 (UTC 2006-11-01)

Audio
ID                               : 1
Format                           : AC-3
Format/Info                      : Audio Coding 3
Codec ID                         : 2000
Duration                         : 1h 32mn
Bit rate mode                    : Constant
Bit rate                         : 384 Kbps
Channel(s)                       : 6 channels
Channel positions                : Front: L C R, Surround: L R, LFE
Sampling rate                    : 48.0 KHz
Stream size                      : 254 MiB (18%)
Alignment                        : Split accross interleaves
Interleave, duration             : 40 ms (1.00 video frame)
Interleave, preload duration     : 500 ms

Met dank aan VectraTeam voor de bron..